<svg width="26" height="26" viewBox="0 0 26 26" fill="none" xmlns="http://www.w3.org/2000/svg">
<path d="M15.9068 4.19421C14.1477 2.63567 11.8148 1.77734 9.338 1.77734C6.86082 1.77734 4.52786 2.63567 2.76857 4.19421C0.983093 5.77597 0 7.88637 0 10.1368C0 12.7511 1.35681 15.1947 3.65685 16.7731L3.19228 18.7492C3.12206 19.0483 3.2383 19.3604 3.48724 19.5405C3.62015 19.6367 3.77686 19.6853 3.93396 19.6853C4.07123 19.6853 4.20889 19.6482 4.33109 19.5734L6.66286 18.1483C7.26668 18.3096 7.88657 18.414 8.51558 18.4632C8.37534 17.8635 8.30412 17.2498 8.30412 16.6261C8.30412 15.422 8.56735 14.2545 9.08647 13.1555C9.58159 12.108 10.2864 11.1697 11.1816 10.3671C12.9905 8.74509 15.3814 7.85185 17.9139 7.85185C18.0521 7.85185 18.19 7.85503 18.3273 7.86018C17.8958 6.48492 17.0724 5.2269 15.9068 4.19421ZM6.82452 7.95679C6.6825 8.09842 6.48592 8.18015 6.28577 8.18015C6.08522 8.18015 5.88864 8.09842 5.74701 7.95679C5.60538 7.81496 5.52405 7.61858 5.52405 7.41843C5.52405 7.21788 5.60538 7.0213 5.74701 6.87967C5.88864 6.73804 6.08522 6.65631 6.28577 6.65631C6.48592 6.65631 6.6825 6.73804 6.82452 6.87967C6.96635 7.0213 7.04749 7.21788 7.04749 7.41843C7.04749 7.61858 6.96635 7.81496 6.82452 7.95679ZM11.8271 7.95679C11.6848 8.09842 11.4883 8.18015 11.2883 8.18015C11.0878 8.18015 10.8912 8.09842 10.7496 7.95679C10.6077 7.81496 10.5266 7.61858 10.5266 7.41843C10.5266 7.21788 10.6077 7.0213 10.7496 6.87967C10.8916 6.73804 11.0878 6.65631 11.2883 6.65631C11.4883 6.65631 11.6848 6.73804 11.8271 6.87967C11.9687 7.0213 12.05 7.21788 12.05 7.41843C12.05 7.61858 11.9687 7.81496 11.8271 7.95679Z" fill="white"/>
<path d="M26.0001 16.6258C26.0001 12.6278 22.3726 9.375 17.914 9.375C13.4551 9.375 9.82764 12.6278 9.82764 16.6258C9.82764 20.6238 13.4551 23.8766 17.914 23.8766C18.8794 23.8766 19.821 23.7263 20.7174 23.4289L22.7177 24.1839C22.8052 24.217 22.8963 24.2329 22.9865 24.2329C23.1781 24.2329 23.366 24.1609 23.5102 24.0248C23.7221 23.8244 23.801 23.5208 23.7135 23.2426L23.3271 22.0144C25.0331 20.6401 26.0001 18.7043 26.0001 16.6258ZM15.6155 15.2265C15.4737 15.3682 15.2773 15.4495 15.0771 15.4495C14.8766 15.4495 14.68 15.3682 14.5384 15.2265C14.3968 15.0849 14.3148 14.8883 14.3148 14.6878C14.3148 14.487 14.3968 14.2911 14.5384 14.1488C14.68 14.0072 14.8766 13.9261 15.0771 13.9261C15.2773 13.9261 15.4737 14.0072 15.6155 14.1488C15.7575 14.2911 15.8389 14.487 15.8389 14.6878C15.8389 14.8883 15.7575 15.0849 15.6155 15.2265ZM20.8946 15.2265C20.7529 15.3682 20.5564 15.4495 20.3564 15.4495C20.1559 15.4495 19.9593 15.3682 19.8177 15.2265C19.6758 15.0849 19.5947 14.8883 19.5947 14.6878C19.5947 14.487 19.6758 14.2911 19.8177 14.1488C19.9593 14.0072 20.1559 13.9261 20.3564 13.9261C20.5564 13.9261 20.7529 14.0072 20.8946 14.1488C21.0364 14.2911 21.1177 14.487 21.1177 14.6878C21.1177 14.8883 21.0364 15.0849 20.8946 15.2265Z" fill="white"/>
</svg>
