<svg width="170" height="48" viewBox="0 0 170 48" fill="none" xmlns="http://www.w3.org/2000/svg">
    <path d="M19.6452 33.7333C17.0568 33.7333 14.4021 33.7333 11.8137 33.7333C10.619 33.7333 9.68986 32.8 9.62349 31.7333C9.55712 30.5333 10.3535 29.5333 11.6146 29.3333C11.88 29.2666 12.2119 29.3333 12.4774 29.2666C16.725 29.2666 20.9726 29.2666 25.2202 29.2666C27.2777 29.2666 29.3351 29.1333 31.3262 28.4C34.7774 27.2 37.4321 25.0666 38.0958 21.2666C38.5604 18.8 38.5604 16.2666 38.0294 13.8666C37.2994 10.6 34.9765 8.79996 31.9899 7.73329C30.4634 7.19996 28.8705 6.86662 27.2777 6.79996C23.6274 6.66662 20.0434 6.53329 16.3931 6.93329C11.2827 7.53329 7.83153 10.9333 6.90236 16C6.70325 17.1333 6.57051 18.3333 6.57051 19.4666C6.57051 22.4666 6.57051 25.4666 6.57051 28.4666C6.57051 30.4 6.76962 32.2666 7.36694 34.0666C8.62795 37.9333 11.3491 40.0666 15.1985 40.8666C16.5922 41.2 18.0524 41.2666 19.5125 41.2666C22.8309 41.2666 26.1494 41.3333 29.4678 41.2C33.0518 41.0666 35.972 39.7333 38.0958 36.8666C38.4277 36.4 38.8259 35.9333 39.3568 35.6C40.286 35.0666 41.3479 35.2 42.1443 36.0666C42.8744 36.8666 42.9408 38.0666 42.2771 38.8666C40.4851 41.2666 38.4277 43.3333 35.7065 44.5333C33.7818 45.3333 31.7908 45.7999 29.7333 45.7999C25.6848 45.9333 21.6363 45.9333 17.5878 45.7999C14.4021 45.6666 11.3491 44.8666 8.69432 43.0666C5.11039 40.6666 3.25206 37.1333 2.522 33C2.19016 31.3333 2.12379 29.6666 2.12379 27.9333C2.12379 24.6 1.99105 21.2 2.19016 17.8666C2.45563 13.3333 3.84938 9.26662 7.30057 6.13329C9.8226 3.79996 12.9419 2.66663 16.3268 2.33329C20.5744 1.93329 24.822 1.86663 29.0033 2.33329C32.919 2.73329 36.5693 4.06663 39.2905 7.06662C41.4806 9.46662 42.6089 12.2666 42.7417 15.5333C42.808 17.8666 43.0071 20.2666 42.4098 22.6C41.0824 27.7333 37.764 31 32.8527 32.6666C30.7289 33.4 28.5387 33.7333 26.2821 33.7333C24.0919 33.7333 21.8354 33.7333 19.6452 33.7333Z" fill="#FF8818"/>
    <path d="M168.312 23.9332C168.246 26.5999 168.378 29.3332 168.047 31.9999C167.051 39.5999 162.073 44.6666 154.507 45.4666C149.53 45.9999 144.552 46.1999 139.641 45.1332C133.336 43.8666 129.154 39.3332 128.026 32.9332C127.761 31.2666 127.561 29.5999 127.561 27.8666C127.561 25.0666 127.561 22.2666 127.561 19.3999C127.561 16.4666 127.96 13.6666 129.154 10.9332C131.278 5.99989 135.194 3.39989 140.238 2.33323C141.764 1.99989 143.357 1.86656 144.95 1.86656C147.937 1.93323 150.923 1.73323 153.844 1.99989C161.675 2.86656 166.852 7.46656 168.047 15.5999C168.445 18.4666 168.312 21.1999 168.312 23.9332ZM132.141 23.9332C132.207 26.3999 132.074 28.7999 132.34 31.2666C132.937 36.8666 136.654 40.5332 142.229 40.9999C146.012 41.3332 149.861 41.3332 153.644 40.9999C159.286 40.5332 163.135 36.7332 163.6 31.0666C163.932 26.2666 163.932 21.5332 163.6 16.7332C163.202 11.0666 159.352 7.26656 153.777 6.79989C149.928 6.46656 146.078 6.46656 142.163 6.79989C136.654 7.26656 132.937 11.1332 132.34 16.6666C132.008 19.0666 132.207 21.4666 132.141 23.9332Z" fill="#FF8818"/>
    <path d="M54.6217 24.0666C54.6881 26.5999 54.489 29.1999 54.8872 31.7333C55.6836 37.3333 59.1348 40.6666 64.6435 41.1333C68.5592 41.4666 72.4086 41.4666 76.3244 41.1333C79.9083 40.7999 82.8286 39.3333 84.6205 35.9999C85.1515 34.9999 86.5452 34.7333 87.6071 35.2666C88.669 35.8666 89.1336 37.0666 88.6027 38.1333C87.2753 40.7999 85.0851 42.6666 82.4304 43.9999C79.9747 45.1999 77.3863 45.7999 74.6652 45.8666C71.2804 45.9333 67.8955 46.1333 64.5771 45.7333C58.2057 45.0666 53.4935 42.1333 51.2369 35.8666C50.3741 33.5333 50.1086 31.0666 50.1086 28.5999C50.1086 25.0666 50.0423 21.4666 50.175 17.9333C50.3741 13.3999 51.7679 9.33328 55.219 6.19995C57.9402 3.79995 61.1923 2.59995 64.7762 2.33328C68.8247 1.99995 72.9396 1.93328 77.0545 2.46661C81.4348 3.06661 85.1515 4.86661 87.8063 8.53328C88.7354 9.79995 88.5363 11.1333 87.408 11.9333C86.2798 12.7333 84.9524 12.3999 84.0896 11.1999C82.4967 8.86661 80.1738 7.53328 77.4527 7.19995C72.7405 6.53328 68.0283 6.39995 63.3824 7.26661C58.5375 8.13328 55.6173 11.4666 54.8872 16.3999C54.489 18.8666 54.6881 21.4666 54.6217 24.0666Z" fill="#FF8818"/>
    <path d="M100.881 22.2001C100.881 28.0667 100.881 33.9334 100.881 39.8667C100.881 40.2001 100.881 40.5334 100.947 40.9334C101.014 41.3334 101.279 41.4667 101.611 41.4001C102.009 41.4001 102.142 41.2001 102.208 40.8667C102.275 40.4667 102.275 40.0001 102.275 39.6001C102.275 32.8667 102.275 26.1334 102.275 19.4001C102.275 15.6667 103.005 12.1334 105.129 9.00008C108.049 4.73341 112.164 2.46675 117.208 1.86675C118.933 1.66675 120.725 1.73341 122.517 1.73341C123.977 1.73341 124.973 2.66675 124.973 4.00008C124.973 5.33341 123.977 6.26675 122.584 6.33341C120.593 6.40008 118.668 6.40008 116.743 6.60008C111.898 7.20008 108.248 11.2667 107.319 15.4667C106.987 16.8667 106.921 18.2667 106.921 19.6667C106.921 26.4001 106.921 33.2001 106.921 39.9334C106.921 41.8667 106.323 43.5334 104.73 44.8001C101.611 47.2667 97.0979 45.4001 96.4342 41.4001C96.3679 40.8667 96.3015 40.3334 96.3015 39.7334C96.3015 28.0001 96.3015 16.2667 96.3015 4.53341C96.3015 4.40008 96.3015 4.26675 96.3015 4.06675C96.3679 2.66675 97.297 1.66675 98.5581 1.66675C99.8854 1.66675 100.881 2.73341 100.881 4.13341C100.881 10.2001 100.881 16.2001 100.881 22.2001Z" fill="#FF8818"/>
</svg>
