<svg width="32" height="28" viewBox="0 0 32 28" fill="none" xmlns="http://www.w3.org/2000/svg">
<path d="M22.7578 1.01881C24.9775 1.01881 27.0572 1.8652 28.6281 3.41379C30.199 4.96238 31.0576 7.01881 31.0512 9.2069C31.0512 11.395 30.1863 13.4514 28.6154 15L16.6459 26.7555C16.4806 26.9185 16.258 27 16.0417 27C15.8255 27 15.6029 26.9122 15.4375 26.7492L3.49353 14.9749C1.92262 13.4263 1.0513 11.3762 1.0513 9.18809C1.04494 7 1.9099 4.94357 3.48081 3.39498C5.04536 1.85266 7.13143 1 9.34469 1C11.5643 1 13.6567 1.85893 15.2277 3.40752L16.0608 4.22884L16.8812 3.42006C18.4522 1.87147 20.5382 1.01881 22.7578 1.01881Z" stroke="#201600"/>
</svg>
