<svg width="29" height="26" viewBox="0 0 29 26" fill="none" xmlns="http://www.w3.org/2000/svg">
<path d="M28.2578 3.7333C28.1395 3.61665 28.0213 3.49995 27.7848 3.49995H5.3205L4.72931 0.466649C4.72931 0.233297 4.37461 9.61023e-09 4.13813 9.61023e-09H0.591129C0.236485 -5.46779e-05 0 0.233297 0 0.583297C0 0.933297 0.236485 1.16665 0.591185 1.16665H3.66527L6.50286 15.4C6.85756 17.2667 8.63106 18.6667 10.5228 18.6667H24.1196C24.4743 18.6667 24.7108 18.4333 24.7108 18.0833C24.7108 17.7333 24.4743 17.5 24.1196 17.5H10.641C9.69511 17.5 8.74928 17.0333 8.27631 16.2166L25.5384 13.8833C25.7749 13.8833 26.0113 13.65 26.0113 13.4167L28.376 4.0833C28.376 4.0833 28.376 3.84995 28.2578 3.7333ZM24.9472 12.8333L7.68512 15.05L5.55693 4.54995H26.9572L24.9472 12.8333Z" fill="#201600"/>
<path d="M10.0496 19.8333C8.39433 19.8333 7.09375 21.1166 7.09375 22.7499C7.09375 24.3833 8.39433 25.6665 10.0496 25.6665C11.7048 25.6665 13.0054 24.3832 13.0054 22.7499C13.0054 21.1166 11.7048 19.8333 10.0496 19.8333ZM10.0496 24.4999C9.10368 24.4999 8.27606 23.6832 8.27606 22.7499C8.27606 21.8166 9.10368 20.9999 10.0496 20.9999C10.9954 20.9999 11.8231 21.8166 11.8231 22.7499C11.8231 23.6832 10.9954 24.4999 10.0496 24.4999Z" fill="black"/>
<path d="M21.8734 19.8333C20.218 19.8333 18.9175 21.1166 18.9175 22.7499C18.9175 24.3833 20.2181 25.6665 21.8734 25.6665C23.5287 25.6665 24.8292 24.3832 24.8292 22.7499C24.8292 21.1166 23.5286 19.8333 21.8734 19.8333ZM21.8734 24.4999C20.9274 24.4999 20.0998 23.6832 20.0998 22.7499C20.0998 21.8166 20.9274 20.9999 21.8734 20.9999C22.8193 20.9999 23.6469 21.8166 23.6469 22.7499C23.6469 23.6832 22.8192 24.4999 21.8734 24.4999Z" fill="black"/>
</svg>
