<svg width="10" height="20" viewBox="0 0 10 20" fill="none" xmlns="http://www.w3.org/2000/svg">
<path d="M9.62343 0.853458L7.22488 0.849609C4.5302 0.849609 2.78878 2.63625 2.78878 5.40155V7.5003H0.377148C0.168755 7.5003 0 7.66925 0 7.87765V10.9185C0 11.1269 0.168947 11.2956 0.377148 11.2956H2.78878V18.9687C2.78878 19.1771 2.95753 19.3458 3.16593 19.3458H6.31242C6.52081 19.3458 6.68957 19.1769 6.68957 18.9687V11.2956H9.50932C9.71772 11.2956 9.88647 11.1269 9.88647 10.9185L9.88763 7.87765C9.88763 7.77759 9.84779 7.68176 9.77718 7.61095C9.70656 7.54014 9.61034 7.5003 9.51029 7.5003H6.68957V5.72117C6.68957 4.86604 6.89334 4.43194 8.00727 4.43194L9.62304 4.43136C9.83125 4.43136 10 4.26241 10 4.05421V1.23061C10 1.0226 9.83144 0.853843 9.62343 0.853458Z" fill="white"/>
</svg>
