<svg width="23" height="20" viewBox="0 0 23 20" fill="none" xmlns="http://www.w3.org/2000/svg">
<path d="M23 2.83496C22.1535 3.21006 21.2452 3.46445 20.2908 3.57802C21.2653 2.99449 22.0112 2.06893 22.3647 0.969437C21.4507 1.50983 20.4417 1.90222 19.3666 2.11493C18.5057 1.19654 17.2812 0.624512 15.923 0.624512C13.3173 0.624512 11.2046 2.73725 11.2046 5.34151C11.2046 5.71086 11.2463 6.07161 11.3268 6.41657C7.40601 6.21965 3.92936 4.3412 1.60249 1.48683C1.19574 2.18246 0.964348 2.99303 0.964348 3.85827C0.964348 5.4953 1.79795 6.93971 3.06273 7.78478C2.28948 7.75892 1.56224 7.54621 0.925564 7.19264V7.25157C0.925564 9.53676 2.55252 11.444 4.70978 11.878C4.31454 11.9844 3.89775 12.0433 3.46658 12.0433C3.1619 12.0433 2.86726 12.0131 2.57837 11.9556C3.17912 13.8312 4.92107 15.1951 6.98495 15.2325C5.37092 16.4973 3.33579 17.249 1.12535 17.249C0.744495 17.249 0.369354 17.226 0 17.1843C2.08831 18.5253 4.56754 19.3071 7.23216 19.3071C15.9116 19.3071 20.6559 12.1181 20.6559 5.88336L20.6401 5.27255C21.5671 4.61137 22.369 3.78067 23 2.83496Z" fill="white"/>
</svg>
