<svg width="30" height="30" viewBox="0 0 30 30" fill="none" xmlns="http://www.w3.org/2000/svg">
<g clip-path="url(#clip0)">
<path d="M29.7348 7.24358H29.7367L27.1546 2.86986C26.8076 2.28492 26.1789 1.92531 25.4987 1.92307H5.0077C4.37943 1.92307 3.79072 2.22986 3.43078 2.74486L0.344241 7.16947C0.118985 7.49204 -0.00127191 7.87633 1.01452e-05 8.26979V9.46851C0.00776656 10.7852 0.861356 11.9476 2.11539 12.3491V27.4371C2.10661 27.7816 2.37873 28.0679 2.72322 28.0767C2.72789 28.0768 2.73251 28.0769 2.73719 28.0769H27.2272C27.5842 28.0788 27.8768 27.794 27.8846 27.4371V12.3606C29.1443 11.9601 29.9999 10.7903 30 9.46845V8.21697C29.9974 7.87499 29.906 7.5396 29.7348 7.24358ZM17.9487 26.7949H12.0513V18.0769H17.9487V26.7949ZM26.6026 26.7949H19.2308V17.4419C19.2205 17.0824 18.9265 16.7959 18.5668 16.7949H11.3974C11.0465 16.7988 10.7652 17.0866 10.7692 17.4375C10.7692 17.439 10.7692 17.4405 10.7692 17.4419V26.7949H3.39745V12.4727C4.04007 12.3915 4.64033 12.1084 5.11168 11.6642C6.02687 13.5797 8.32168 14.3908 10.2373 13.4756C10.8624 13.177 11.3951 12.715 11.7792 12.1385C12.9597 13.9077 15.3509 14.3849 17.1201 13.2043C17.5555 12.9138 17.927 12.5376 18.2121 12.0987C19.3835 13.8838 21.7803 14.3813 23.5655 13.2097C24.1458 12.8288 24.613 12.2987 24.9178 11.6751C25.3829 12.1087 25.972 12.3861 26.6026 12.4684V26.7949ZM28.718 9.46845C28.7189 10.4308 27.9395 11.2115 26.9773 11.2125C26.156 11.2133 25.4458 10.6405 25.2724 9.83774L25.2305 9.40582C25.1939 9.05371 24.8787 8.798 24.5266 8.83467C24.2014 8.86851 23.9539 9.14159 23.9519 9.46845C23.9519 9.65614 23.9692 9.84351 24.0039 10.028L24.0043 10.0322C23.9905 11.4474 22.832 12.5834 21.4168 12.5695C20.0091 12.5558 18.8761 11.409 18.8793 10.0012C18.8794 9.64691 18.5926 9.35954 18.2383 9.35896H18.1859C17.8316 9.35954 17.5448 9.64691 17.5449 10.0012C17.5522 11.4165 16.4108 12.5697 14.9955 12.577C13.5803 12.5843 12.427 11.443 12.4197 10.0277C12.4196 10.0192 12.4196 10.0106 12.4197 10.002C12.4197 9.648 12.1327 9.36101 11.7787 9.36101C11.4246 9.36101 11.1376 9.648 11.1376 10.002C11.1349 11.4174 9.98546 12.5625 8.57014 12.5598C7.16655 12.5572 6.02629 11.4259 6.01251 10.0224L6.02392 9.85108C6.04001 9.72409 6.04802 9.5962 6.04802 9.46819C6.04809 9.11415 5.76116 8.8271 5.40713 8.82704C5.06956 8.82697 4.78975 9.08871 4.76738 9.42556L4.7477 9.72101C4.6095 10.6731 3.72565 11.3327 2.77366 11.1945C1.91642 11.0701 1.28091 10.3347 1.28206 9.46845V8.26973C1.28116 8.1387 1.32078 8.01056 1.39546 7.90287L4.48302 3.47864C4.60264 3.3071 4.7986 3.20492 5.0077 3.20512H25.4987C25.7253 3.20537 25.9349 3.32486 26.0507 3.5196L28.6308 7.8914C28.6885 7.99018 28.7186 8.10262 28.718 8.21697V9.46845Z" fill="#C1C1C7"/>
<path d="M8.90996 17.0513H4.87149C4.51746 17.0513 4.23047 17.3383 4.23047 17.6923V21.4744C4.23047 21.8284 4.51746 22.1154 4.87149 22.1154H8.90996C9.26399 22.1154 9.55098 21.8284 9.55098 21.4744V17.6923C9.55098 17.3383 9.26399 17.0513 8.90996 17.0513ZM8.26893 20.8334H5.51252V18.3334H8.26893V20.8334Z" fill="#C1C1C7"/>
<path d="M25.0638 17.0513H21.0253C20.6713 17.0513 20.3843 17.3383 20.3843 17.6923V21.4744C20.3843 21.8284 20.6713 22.1154 21.0253 22.1154H25.0638C25.4178 22.1154 25.7048 21.8284 25.7048 21.4744V17.6923C25.7048 17.3383 25.4178 17.0513 25.0638 17.0513ZM24.4227 20.8334H21.6663V18.3334H24.4227V20.8334Z" fill="#C1C1C7"/>
</g>
<defs>
<clipPath id="clip0">
<rect width="30" height="30" fill="white"/>
</clipPath>
</defs>
</svg>
